<?xml version="1.0" encoding="UTF-8"?>
<svg version="1.1" xmlns="http://www.w3.org/2000/svg" width="489" height="489">
<path d="M0 0 C4.17880694 1.56217082 6.51479927 4.64405467 9.25 8 C9.98222778 8.88220215 9.98222778 8.88220215 10.72924805 9.78222656 C14.10432062 13.862265 17.41831887 17.99074463 20.70703125 22.140625 C23.76792269 25.95761398 26.88462265 29.72744079 30 33.5 C35.90361547 40.65516956 41.75158902 47.84684042 47.46875 55.15234375 C52.5968248 61.70431243 57.76238619 68.22256146 63 74.6875 C63.55196045 75.37086426 64.1039209 76.05422852 64.67260742 76.75830078 C65.19314697 77.39880371 65.71368652 78.03930664 66.25 78.69921875 C66.70890625 79.26471436 67.1678125 79.83020996 67.640625 80.4128418 C68.08921875 80.936604 68.5378125 81.46036621 69 82 C69.41797852 82.50635986 69.83595703 83.01271973 70.26660156 83.53442383 C72.76461461 85.64647627 75.44081774 86.5648686 78.484375 87.75 C79.81426961 88.27539997 81.14410098 88.80096 82.47387695 89.32666016 C83.17147125 89.59923645 83.86906555 89.87181274 84.58779907 90.15264893 C112.36022031 101.03646211 138.71476967 113.885171 162.88085938 131.52685547 C164.95683225 133.03413196 164.95683225 133.03413196 167.18164062 134.14892578 C171.04455256 136.38501935 172.68886595 138.0500738 174.10327148 142.3684082 C174.41871216 143.70593897 174.71952159 145.0469808 175.0078125 146.390625 C178.42531644 162.18899691 178.42531644 162.18899691 188.08898926 174.6361084 C199.46954669 181.70372181 213.03631815 185.18801175 225.75732422 189.04101562 C234.87351963 191.83801194 243.72471367 195.31212907 252.58996582 198.81097412 C255.27323167 199.85965308 257.96756604 200.87314944 260.66699219 201.87939453 C262.29516032 202.49970001 263.9231034 203.12059666 265.55078125 203.7421875 C266.66925194 204.15026642 266.66925194 204.15026642 267.81031799 204.56658936 C272.72969261 206.48428363 272.72969261 206.48428363 274.03369141 208.97216797 C273.77227292 224.70652964 258.56690345 241.91311579 250 254 C249.10716309 255.28269775 249.10716309 255.28269775 248.19628906 256.59130859 C246.60860894 258.86722831 244.99887507 261.12481042 243.375 263.375 C242.91512695 264.02879639 242.45525391 264.68259277 241.98144531 265.35620117 C236.32242652 272.96478303 226.68889155 273.20983027 217.90408325 274.99536133 C215.38892297 275.50993838 212.8769661 276.03847385 210.36499023 276.56835938 C201.1168955 278.49518507 191.87106961 280.21957158 182.529953 281.6361084 C177.72091061 282.3694452 172.92078974 283.15445371 168.12014771 283.94067383 C165.76150953 284.31149415 163.39869404 284.65671282 161.03244019 284.9753418 C148.82698214 286.12875608 148.82698214 286.12875608 138.28622437 291.59249878 C135.52164266 295.3678793 134.04543026 299.49784007 132.68045044 303.93939209 C131.63818629 307.09568036 130.09319224 309.94556212 128.54296875 312.87890625 C122.83965482 324.23108119 117.19026976 335.60062679 111.74682617 347.08032227 C106.58682892 357.930183 101.28482637 368.71056427 96 379.5 C86.96786629 397.94309596 86.96786629 397.94309596 78.08276367 416.45727539 C70.83423806 431.69188565 63.39261432 446.83494266 56 462 C52.44736125 462 51.93596207 461.41457233 49.3046875 459.18359375 C48.59352783 458.58780518 47.88236816 457.9920166 47.1496582 457.37817383 C46.399021 456.73775146 45.64838379 456.0973291 44.875 455.4375 C43.32490301 454.13720468 41.7741296 452.83771528 40.22265625 451.5390625 C39.48418457 450.91805664 38.74571289 450.29705078 37.98486328 449.65722656 C34.40312431 446.66671683 30.69974079 443.8415535 27 441 C18.91170079 434.70341264 10.90415319 428.3181286 2.96264648 421.83740234 C-1.32331459 418.34559705 -5.64270284 414.90227312 -10 411.5 C-15.74010668 407.0179989 -21.39693246 402.44043443 -27.0390625 397.8359375 C-31.32451618 394.34469917 -35.64329453 390.90181112 -40 387.5 C-45.0484644 383.55804835 -50.03751462 379.5496258 -55 375.5 C-62.81741077 369.12337912 -70.73258389 362.87907588 -78.69287109 356.68212891 C-85.71107591 351.21768059 -92.64758629 345.67149364 -99.5 340 C-104.83102356 335.58869997 -110.1866119 331.21601425 -115.625 326.9375 C-116.16833984 326.50888672 -116.71167969 326.08027344 -117.27148438 325.63867188 C-121.10251814 322.64108921 -125.02829683 319.80620338 -129 317 C-128.13212481 312.75629534 -125.93643496 310.04952178 -123.25 306.75 C-122.76337891 306.1415625 -122.27675781 305.533125 -121.77539062 304.90625 C-120.1915334 302.93094517 -118.59723306 300.96450102 -117 299 C-116.46697266 298.34322266 -115.93394531 297.68644531 -115.38476562 297.00976562 C-113.20706714 294.32770271 -111.02799035 291.64679985 -108.84326172 288.97045898 C-105.30023844 284.62487533 -101.81931381 280.23657099 -98.375 275.8125 C-94.34744494 270.64518122 -90.18526275 265.61424991 -85.93115234 260.63232422 C-80.76214127 254.57281396 -75.75360463 248.39127939 -71 242 C-86.71380421 244.05980353 -102.36147475 246.43151449 -118 249 C-113.53509291 242.46670419 -108.20157501 236.9232567 -102.58740234 231.3815918 C-101.12929497 229.94174119 -99.67935098 228.49404926 -98.23046875 227.04492188 C-93.55356346 222.38582207 -88.81195107 217.84749286 -83.80029297 213.54858398 C-80.97437455 211.11777295 -78.23994943 208.58926459 -75.5 206.0625 C-74.96375 205.56943359 -74.4275 205.07636719 -73.875 204.56835938 C-72.58254526 203.37976261 -71.29115201 202.19001177 -70 201 C-73.04825467 198.96783022 -75.76626132 197.87432684 -79.19921875 196.6171875 C-80.40771484 196.17246094 -81.61621094 195.72773438 -82.86132812 195.26953125 C-84.13668775 194.80460246 -85.41207878 194.3397598 -86.6875 193.875 C-87.97474157 193.4027039 -89.26185254 192.93005166 -90.54882812 192.45703125 C-93.69795007 191.30117376 -96.84836511 190.1489841 -100 189 C-97.56693434 186.48802592 -95.15169752 184.25205008 -92.3046875 182.22265625 C-91.59723389 181.71541016 -90.88978027 181.20816406 -90.16088867 180.68554688 C-89.40654541 180.14994141 -88.65220215 179.61433594 -87.875 179.0625 C-86.69804565 178.21848633 -86.69804565 178.21848633 -85.49731445 177.35742188 C-82.16293676 174.9666734 -78.82221013 172.58492694 -75.47900391 170.20654297 C-73.04591744 168.47462041 -70.61668324 166.73739082 -68.1875 165 C-67.44161621 164.472854 -66.69573242 163.94570801 -65.92724609 163.40258789 C-65.22293457 162.89848389 -64.51862305 162.39437988 -63.79296875 161.875 C-63.1796167 161.43929687 -62.56626465 161.00359375 -61.93432617 160.5546875 C-55.70994817 155.55193108 -53.48998628 151.0169764 -50.953125 143.60546875 C-50.58491135 142.56725983 -50.21669769 141.5290509 -49.83732605 140.4593811 C-48.62813113 137.03998397 -47.4391789 133.61390402 -46.25 130.1875 C-45.40379603 127.78361529 -44.55620193 125.38021951 -43.70727539 122.97729492 C-41.96739066 118.04574311 -40.23534247 113.11155155 -38.51025391 108.17480469 C-35.19167941 98.68024551 -31.82995951 89.20107777 -28.46838379 79.72167969 C-27.43793077 76.81371564 -26.40959624 73.90501047 -25.38183594 70.99609375 C-19.1991046 53.50502799 -12.91979746 36.04908589 -6.62280273 18.59887695 C-6.25323959 17.57460602 -5.88367645 16.55033508 -5.50291443 15.49502563 C-4.81026515 13.57582874 -4.11722242 11.65677377 -3.42372131 9.73788452 C-3.11760422 8.89005402 -2.81148712 8.04222351 -2.49609375 7.16870117 C-2.22982178 6.43189621 -1.9635498 5.69509125 -1.68920898 4.93595886 C-1.10597478 3.29767868 -0.54992037 1.6497611 0 0 Z M5 42 C4.09821712 50.14611423 3.2024221 58.29285746 2.31375217 66.44041157 C1.90069227 70.22580771 1.48576178 74.01097703 1.06616211 77.7956543 C-1.60176451 101.84677425 -1.60176451 101.84677425 -3 126 C-1.91372314 125.38592285 -0.82744629 124.7718457 0.29174805 124.13916016 C1.20829414 123.62103256 1.20829414 123.62103256 2.14335632 123.09243774 C5.1333616 121.33313699 7.95741708 119.3426711 10.8125 117.375 C19.22733631 111.66966406 28.06143059 106.8255475 37 102 C38.1958424 101.34732411 39.39120039 100.69375944 40.5859375 100.0390625 C43.05446745 98.68739957 45.52554987 97.34078135 48 96 C45.18210075 91.65873527 42.16248216 87.54946593 38.9375 83.5 C37.95432002 82.25789724 36.97125012 81.01570733 35.98828125 79.7734375 C35.49021973 79.1453418 34.9921582 78.51724609 34.47900391 77.87011719 C33.077413 76.09788438 31.68343045 74.32003468 30.29296875 72.5390625 C25.27008234 66.10734013 20.19405015 59.72043417 15.0625 53.375 C14.51867676 52.69969238 13.97485352 52.02438477 13.41455078 51.32861328 C12.89747559 50.69165527 12.38040039 50.05469727 11.84765625 49.3984375 C11.39398682 48.83817871 10.94031738 48.27791992 10.47290039 47.70068359 C8.74105542 45.70100979 6.8770382 43.86303235 5 42 Z M128 159 C125.28109931 162.54281 124.7883507 165.21939793 125.0625 169.5625 C125.82401875 174.47926239 127.75784989 177.31838742 131.75 180.3125 C136.86293181 181.87478472 140.64381879 181.69088477 145.3125 179.3125 C149.24973904 175.92464315 150.81664194 173.71134186 151.375 168.5 C150.84365607 163.54079001 149.22765844 161.22765844 145.75 157.75 C139.33475492 153.66757131 133.86082836 154.65376773 128 159 Z " fill="#EF7122" transform="translate(184,14)"/>
<path d="M0 0 C0.33 0 0.66 0 1 0 C1 25.08 1 50.16 1 76 C-9.12161923 73.75075128 -9.12161923 73.75075128 -12.9375 68.6875 C-13.54899902 67.89714355 -13.54899902 67.89714355 -14.17285156 67.09082031 C-15.03075079 65.97692973 -15.87847342 64.8551338 -16.71630859 63.72607422 C-18.00217296 61.99707821 -19.31748774 60.29519662 -20.64453125 58.59765625 C-25.17391115 52.79088848 -29.60001669 46.90524076 -34 41 C-27.06066635 31.36203659 -19.1799002 22.45998036 -11.1875 13.6875 C-7.66767039 9.82145764 -4.44192407 5.80424101 -1.3125 1.6171875 C-0.879375 1.08351563 -0.44625 0.54984375 0 0 Z " fill="#EE7022" transform="translate(269,17)"/>
<path d="M0 0 C0.33 0 0.66 0 1 0 C1 25.08 1 50.16 1 76 C-0.32 75.67 -1.64 75.34 -3 75 C-2.01 74.505 -2.01 74.505 -1 74 C-1.33 51.56 -1.66 29.12 -2 6 C-2.66 5.67 -3.32 5.34 -4 5 C-2.69254251 3.31295807 -1.35827971 1.64639965 0 0 Z " fill="#ED6111" transform="translate(269,17)"/>
<path d="M0 0 C0 3 0 3 -1 5 C-2.99609375 6.32421875 -2.99609375 6.32421875 -5.4375 7.6875 C-6.24058594 8.14511719 -7.04367188 8.60273438 -7.87109375 9.07421875 C-8.57363281 9.37972656 -9.27617188 9.68523437 -10 10 C-10.66 9.67 -11.32 9.34 -12 9 C-8.04 6.03 -4.08 3.06 0 0 Z " fill="#ED5D17" transform="translate(124,173)"/>
<path d="M0 0 C0.33 0.66 0.66 1.32 1 2 C3.02463255 2.65213292 3.02463255 2.65213292 5 3 C4.67 3.66 4.34 4.32 4 5 C1.35139573 5.59355614 -1.29197322 5.74209269 -4 6 C-2.68 4.02 -1.36 2.04 0 0 Z " fill="#ED6728" transform="translate(70,257)"/>
<path d="M0 0 C0.66 0.33 1.32 0.66 2 1 C2 1.66 2 2.32 2 3 C1.34 3 0.68 3 0 3 C-0.12375 3.721875 -0.2475 4.44375 -0.375 5.1875 C-0.9904931 7.95721894 -1.88444374 10.3970354 -3 13 C-4.23593891 9.29218328 -3.5678132 8.32489747 -2.0625 4.8125 C-1.68222656 3.91144531 -1.30195313 3.01039063 -0.91015625 2.08203125 C-0.60980469 1.39496094 -0.30945313 0.70789063 0 0 Z " fill="#EB5A14" transform="translate(144,128)"/>
</svg>
